<svg width="57" height="57" viewBox="0 0 57 57" fill="none" xmlns="http://www.w3.org/2000/svg">
<circle cx="28.5" cy="28.5" r="28" fill="#FAFAFA" stroke="url(#paint0_linear_1601_956)"/>
<path d="M33.2197 33.0322V33.9375H25.2129V33.1201L29.4053 28.3652C29.9268 27.7734 30.3428 27.2549 30.6533 26.8096C30.9639 26.3584 31.1865 25.9482 31.3213 25.5791C31.4619 25.2041 31.5322 24.8408 31.5322 24.4893C31.5322 23.9736 31.4297 23.5195 31.2246 23.127C31.0254 22.7344 30.7266 22.4268 30.3281 22.2041C29.9297 21.9814 29.4375 21.8701 28.8516 21.8701C28.2656 21.8701 27.7559 21.9961 27.3223 22.248C26.8887 22.5 26.5547 22.8516 26.3203 23.3027C26.0918 23.748 25.9775 24.2549 25.9775 24.8232H24.9316C24.9316 24.1201 25.0869 23.4756 25.3975 22.8896C25.7139 22.3037 26.165 21.8379 26.751 21.4922C27.3369 21.1406 28.0371 20.9648 28.8516 20.9648C29.625 20.9648 30.29 21.1025 30.8467 21.3779C31.4033 21.6475 31.8311 22.0371 32.1299 22.5469C32.4346 23.0566 32.5869 23.6719 32.5869 24.3926C32.5869 24.7793 32.5166 25.1689 32.376 25.5615C32.2412 25.9541 32.0537 26.3467 31.8135 26.7393C31.5791 27.126 31.3096 27.5098 31.0049 27.8906C30.7061 28.2715 30.3926 28.6465 30.0645 29.0156L26.4961 33.0322H33.2197Z" fill="#3F3F3F"/>
<defs>
<linearGradient id="paint0_linear_1601_956" x1="0" y1="0" x2="73.211" y2="74.7798" gradientUnits="userSpaceOnUse">
<stop offset="0.104539" stop-color="#BCE260"/>
<stop offset="1" stop-color="#38AF68"/>
</linearGradient>
</defs>
</svg>
