<svg width="57" height="57" viewBox="0 0 57 57" fill="none" xmlns="http://www.w3.org/2000/svg">
<circle cx="28.5" cy="28.5" r="28" fill="#FAFAFA" stroke="url(#paint0_linear_1601_953)"/>
<path d="M27.5508 26.834H28.623C29.2793 26.834 29.8271 26.7227 30.2666 26.5C30.7119 26.2715 31.0459 25.9697 31.2686 25.5947C31.4971 25.2197 31.6113 24.8037 31.6113 24.3467C31.6113 23.8311 31.5146 23.3799 31.3213 22.9932C31.1279 22.6006 30.832 22.2959 30.4336 22.0791C30.041 21.8564 29.5371 21.7451 28.9219 21.7451C28.3828 21.7451 27.9023 21.8506 27.4805 22.0615C27.0586 22.2725 26.7246 22.5742 26.4785 22.9668C26.2324 23.3594 26.1094 23.8281 26.1094 24.373H25.0635C25.0635 23.6758 25.2305 23.0635 25.5645 22.5361C25.8984 22.0029 26.3584 21.5869 26.9443 21.2881C27.5303 20.9893 28.1895 20.8398 28.9219 20.8398C29.6777 20.8398 30.334 20.9775 30.8906 21.2529C31.4531 21.5283 31.8867 21.9297 32.1914 22.457C32.502 22.9844 32.6572 23.626 32.6572 24.3818C32.6572 24.7686 32.5723 25.1494 32.4023 25.5244C32.2383 25.8994 31.9922 26.2393 31.6641 26.5439C31.3359 26.8428 30.9287 27.083 30.4424 27.2646C29.9561 27.4463 29.3906 27.5371 28.7461 27.5371H27.5508V26.834ZM27.5508 27.7393V27.0449H28.7461C29.4785 27.0449 30.1055 27.1299 30.627 27.2998C31.1484 27.4639 31.5762 27.6982 31.9102 28.0029C32.25 28.3018 32.499 28.6504 32.6572 29.0488C32.8154 29.4473 32.8945 29.875 32.8945 30.332C32.8945 30.918 32.7979 31.4365 32.6045 31.8877C32.4111 32.3389 32.1357 32.7227 31.7783 33.0391C31.4268 33.3496 31.0107 33.5869 30.5303 33.751C30.0557 33.9092 29.5342 33.9883 28.9658 33.9883C28.4502 33.9883 27.9463 33.9121 27.4541 33.7598C26.9678 33.6074 26.5283 33.3818 26.1357 33.083C25.749 32.7783 25.4414 32.3975 25.2129 31.9404C24.9844 31.4775 24.8701 30.9443 24.8701 30.3408H25.916C25.916 30.8799 26.0449 31.3574 26.3027 31.7734C26.5605 32.1836 26.918 32.5059 27.375 32.7402C27.8379 32.9688 28.3682 33.083 28.9658 33.083C29.5693 33.083 30.085 32.9805 30.5127 32.7754C30.9463 32.5645 31.2773 32.2568 31.5059 31.8525C31.7344 31.4482 31.8486 30.9531 31.8486 30.3672C31.8486 29.752 31.7109 29.251 31.4355 28.8643C31.166 28.4775 30.7881 28.1934 30.3018 28.0117C29.8213 27.8301 29.2617 27.7393 28.623 27.7393H27.5508Z" fill="#3F3F3F"/>
<defs>
<linearGradient id="paint0_linear_1601_953" x1="0" y1="0" x2="73.211" y2="74.7798" gradientUnits="userSpaceOnUse">
<stop offset="0.104539" stop-color="#BCE260"/>
<stop offset="1" stop-color="#38AF68"/>
</linearGradient>
</defs>
</svg>
