<svg width="78" height="78" viewBox="0 0 78 78" fill="none" xmlns="http://www.w3.org/2000/svg">
<path fill-rule="evenodd" clip-rule="evenodd" d="M37.2758 47.5018C37.7392 47.1921 38.2841 47.0269 38.8416 47.0269C39.589 47.0269 40.3059 47.3238 40.8344 47.8523C41.363 48.3809 41.6599 49.0977 41.6599 49.8452C41.6599 50.4026 41.4946 50.9475 41.1849 51.411C40.8752 51.8745 40.4351 52.2357 39.9201 52.449C39.4051 52.6624 38.8384 52.7182 38.2917 52.6094C37.745 52.5007 37.2428 52.2323 36.8487 51.8381C36.4545 51.4439 36.1861 50.9417 36.0773 50.3951C35.9686 49.8483 36.0244 49.2817 36.2377 48.7667C36.451 48.2517 36.8123 47.8115 37.2758 47.5018Z" fill="url(#paint0_linear_1601_1005)"/>
<path fill-rule="evenodd" clip-rule="evenodd" d="M38.8416 18.8433C39.8792 18.8433 40.7205 19.6845 40.7205 20.7222V41.3901C40.7205 42.4278 39.8792 43.269 38.8416 43.269C37.8039 43.269 36.9626 42.4278 36.9626 41.3901V20.7222C36.9626 19.6845 37.8039 18.8433 38.8416 18.8433Z" fill="url(#paint1_linear_1601_1005)"/>
<path fill-rule="evenodd" clip-rule="evenodd" d="M17.5842 16.3749C23.222 10.7371 30.8685 7.56982 38.8416 7.56982C46.8146 7.56982 54.4611 10.7371 60.099 16.3749C65.7368 22.0127 68.9041 29.6593 68.9041 37.6323C68.9041 45.6054 65.7368 53.2519 60.099 58.8897C54.4611 64.5275 46.8146 67.6948 38.8416 67.6948C30.8685 67.6948 23.222 64.5275 17.5842 58.8897C11.9463 53.2519 8.77905 45.6054 8.77905 37.6323C8.77905 29.6593 11.9463 22.0127 17.5842 16.3749ZM38.8416 11.3276C31.8651 11.3276 25.1744 14.099 20.2413 19.0321C15.3082 23.9652 12.5369 30.6559 12.5369 37.6323C12.5369 44.6088 15.3082 51.2995 20.2413 56.2325C25.1744 61.1656 31.8651 63.937 38.8416 63.937C45.818 63.937 52.5087 61.1656 57.4418 56.2325C62.3749 51.2995 65.1462 44.6088 65.1462 37.6323C65.1462 30.6559 62.3749 23.9652 57.4418 19.0321C52.5087 14.099 45.818 11.3276 38.8416 11.3276Z" fill="url(#paint2_linear_1601_1005)"/>
<defs>
<linearGradient id="paint0_linear_1601_1005" x1="8.77905" y1="7.56982" x2="86.0038" y2="86.4494" gradientUnits="userSpaceOnUse">
<stop offset="0.104539" stop-color="#BCE260"/>
<stop offset="1" stop-color="#38AF68"/>
</linearGradient>
<linearGradient id="paint1_linear_1601_1005" x1="8.77905" y1="7.56982" x2="86.0038" y2="86.4494" gradientUnits="userSpaceOnUse">
<stop offset="0.104539" stop-color="#BCE260"/>
<stop offset="1" stop-color="#38AF68"/>
</linearGradient>
<linearGradient id="paint2_linear_1601_1005" x1="8.77905" y1="7.56982" x2="86.0038" y2="86.4494" gradientUnits="userSpaceOnUse">
<stop offset="0.104539" stop-color="#BCE260"/>
<stop offset="1" stop-color="#38AF68"/>
</linearGradient>
</defs>
</svg>
