<svg width="14" height="14" viewBox="0 0 14 14" fill="none" xmlns="http://www.w3.org/2000/svg">
<path fill-rule="evenodd" clip-rule="evenodd" d="M12.2822 0.240488C12.4597 0.16695 12.6549 0.147689 12.8433 0.185144C13.0317 0.222598 13.2047 0.315084 13.3406 0.450902C13.4764 0.586721 13.5689 0.759769 13.6063 0.948158C13.6438 1.13655 13.6245 1.33181 13.551 1.50925L8.77559 13.026C8.6958 13.2182 8.55627 13.3798 8.37776 13.4868C8.19925 13.5937 7.9911 13.6405 7.784 13.6202C7.57689 13.5999 7.38179 13.5136 7.22745 13.374C7.0731 13.2344 6.96769 13.049 6.92673 12.8449L5.92983 7.86163L0.94684 6.86479C0.742813 6.82384 0.55703 6.71836 0.417449 6.56402C0.277868 6.40967 0.191564 6.21457 0.17126 6.00747C0.150956 5.80036 0.197724 5.59221 0.304673 5.4137C0.411621 5.23519 0.57309 5.09576 0.76528 5.01596L12.2822 0.240488ZM1.13762 5.91273L12.654 1.1375L7.87874 12.6538L6.81847 7.35382C6.78003 7.16165 6.62982 7.01143 6.43765 6.97299L1.13762 5.91273Z" fill="#3F3F3F"/>
</svg>
