<svg width="108" height="116" viewBox="0 0 108 116" fill="none" xmlns="http://www.w3.org/2000/svg">
<g filter="url(#filter0_d_1601_596)">
<path d="M46.5 8.33013C51.141 5.65064 56.859 5.65064 61.5 8.33013L89.8013 24.6699C94.4423 27.3494 97.3013 32.3013 97.3013 37.6603V70.3397C97.3013 75.6987 94.4423 80.6506 89.8013 83.3301L61.5 99.6699C56.859 102.349 51.141 102.349 46.5 99.6699L18.1987 83.3301C13.5577 80.6506 10.6987 75.6987 10.6987 70.3397V37.6603C10.6987 32.3013 13.5577 27.3494 18.1987 24.6699L46.5 8.33013Z" fill="white"/>
</g>
<path fill-rule="evenodd" clip-rule="evenodd" d="M54.1027 43.8462C51.8936 43.8462 50.1027 45.637 50.1027 47.8462C50.1027 50.0553 51.8936 51.8462 54.1027 51.8462C56.3119 51.8462 58.1027 50.0553 58.1027 47.8462C58.1027 45.637 56.3119 43.8462 54.1027 43.8462ZM48.2566 47.8462C48.2566 44.6174 50.874 42 54.1027 42C57.3315 42 59.9489 44.6174 59.9489 47.8462C59.9489 51.0749 57.3315 53.6923 54.1027 53.6923C50.874 53.6923 48.2566 51.0749 48.2566 47.8462ZM43.3335 62.6154C43.3335 59.3866 45.9509 56.7692 49.1797 56.7692H59.0258C62.2545 56.7692 64.872 59.3866 64.872 62.6154V65.0769C64.872 65.5867 64.4587 66 63.9489 66C63.4391 66 63.0258 65.5867 63.0258 65.0769V62.6154C63.0258 60.4062 61.2349 58.6154 59.0258 58.6154H49.1797C46.9705 58.6154 45.1797 60.4062 45.1797 62.6154V65.0769C45.1797 65.5867 44.7664 66 44.2566 66C43.7468 66 43.3335 65.5867 43.3335 65.0769V62.6154Z" fill="url(#paint0_linear_1601_596)"/>
<defs>
<filter id="filter0_d_1601_596" x="0.69873" y="0.320496" width="106.603" height="115.359" filterUnits="userSpaceOnUse" color-interpolation-filters="sRGB">
<feFlood flood-opacity="0" result="BackgroundImageFix"/>
<feColorMatrix in="SourceAlpha" type="matrix" values="0 0 0 0 0 0 0 0 0 0 0 0 0 0 0 0 0 0 127 0" result="hardAlpha"/>
<feOffset dy="4"/>
<feGaussianBlur stdDeviation="5"/>
<feComposite in2="hardAlpha" operator="out"/>
<feColorMatrix type="matrix" values="0 0 0 0 0 0 0 0 0 0 0 0 0 0 0 0 0 0 0.05 0"/>
<feBlend mode="normal" in2="BackgroundImageFix" result="effect1_dropShadow_1601_596"/>
<feBlend mode="normal" in="SourceGraphic" in2="effect1_dropShadow_1601_596" result="shape"/>
</filter>
<linearGradient id="paint0_linear_1601_596" x1="43.3335" y1="42" x2="74.0498" y2="70.1566" gradientUnits="userSpaceOnUse">
<stop offset="0.104539" stop-color="#BCE260"/>
<stop offset="1" stop-color="#38AF68"/>
</linearGradient>
</defs>
</svg>
