<svg width="24" height="24" viewBox="0 0 24 24" fill="none" xmlns="http://www.w3.org/2000/svg">
<path fill-rule="evenodd" clip-rule="evenodd" d="M2.46961 2.46967C2.7625 2.17678 3.23738 2.17678 3.53027 2.46967L21.5303 20.4697C21.8232 20.7626 21.8232 21.2374 21.5303 21.5303C21.2374 21.8232 20.7625 21.8232 20.4696 21.5303L2.46961 3.53033C2.17671 3.23744 2.17671 2.76256 2.46961 2.46967ZM11.9999 5.75C11.2811 5.75 10.6004 5.84777 9.95786 6.0197C9.55773 6.12677 9.14656 5.88919 9.03949 5.48905C8.93242 5.08891 9.17 4.67774 9.57014 4.57067C10.3324 4.36672 11.1434 4.25 11.9999 4.25C15.4703 4.25 18.1522 6.15805 19.9236 7.97669C20.8151 8.89201 21.4964 9.80479 21.9551 10.4884C22.1849 10.8308 22.36 11.1176 22.4788 11.3208C22.5382 11.4225 22.5836 11.5034 22.6148 11.5601C22.6304 11.5884 22.6424 11.6107 22.6509 11.6266L22.6609 11.6454L22.6639 11.6511L22.6648 11.653C22.6648 11.653 22.6655 11.6543 21.9999 12C22.6655 12.3457 22.6654 12.346 22.6654 12.346L22.664 12.3487L22.6612 12.354L22.652 12.3713C22.6442 12.3859 22.6332 12.4064 22.6189 12.4324C22.5904 12.4845 22.5488 12.5587 22.4945 12.6522C22.3859 12.8391 22.2259 13.1032 22.0159 13.4204C21.5967 14.0536 20.9744 14.9043 20.1598 15.7757C19.877 16.0783 19.4024 16.0942 19.0998 15.8114C18.7972 15.5285 18.7812 15.0539 19.0641 14.7513C19.8085 13.955 20.3802 13.1739 20.7652 12.5923C20.9209 12.3571 21.0455 12.1555 21.1379 12C21.0347 11.8263 20.8915 11.5953 20.7095 11.3241C20.2875 10.6952 19.662 9.85799 18.849 9.02331C17.2114 7.34195 14.8932 5.75 11.9999 5.75ZM21.9999 12L22.6654 12.346C22.778 12.1292 22.7781 11.871 22.6655 11.6543L21.9999 12ZM4.85929 8.22854C5.16288 8.51033 5.18054 8.98488 4.89874 9.28846C4.16614 10.0777 3.60377 10.8488 3.2251 11.4221C3.07384 11.6512 2.95251 11.8477 2.86193 12C2.96521 12.1737 3.10842 12.4047 3.29034 12.6759C3.71235 13.3048 4.33784 14.142 5.15084 14.9767C6.78852 16.658 9.10665 18.25 11.9999 18.25C12.7319 18.25 13.4244 18.1486 14.0773 17.9708C14.4769 17.8619 14.8891 18.0977 14.998 18.4973C15.1069 18.897 14.8711 19.3092 14.4715 19.4181C13.6972 19.629 12.8722 19.75 11.9999 19.75C8.52959 19.75 5.84772 17.842 4.07631 16.0233C3.18477 15.108 2.50343 14.1952 2.04476 13.5116C1.81497 13.1692 1.63986 12.8824 1.52109 12.6792C1.46168 12.5775 1.41628 12.4966 1.38511 12.4399C1.36952 12.4116 1.35748 12.3893 1.34902 12.3734L1.33901 12.3546L1.33603 12.3489L1.33504 12.347C1.33504 12.347 1.33438 12.3457 1.99994 12C1.33438 11.6543 1.33451 11.654 1.33451 11.654L1.3359 11.6513L1.33863 11.6461L1.34771 11.629C1.35536 11.6147 1.36622 11.5945 1.38027 11.5689C1.40836 11.5176 1.44921 11.4445 1.50265 11.3524C1.60948 11.1684 1.76689 10.9082 1.97346 10.5955C2.38586 9.97105 2.99806 9.13125 3.79937 8.26799C4.08116 7.9644 4.55571 7.94674 4.85929 8.22854ZM1.99994 12L1.33451 11.654C1.22191 11.8708 1.22179 12.129 1.33438 12.3457L1.99994 12ZM11.7603 8.91739C11.8288 8.50888 12.2155 8.23328 12.624 8.30182C14.1957 8.5655 15.4344 9.80419 15.6981 11.3759C15.7667 11.7844 15.4911 12.1711 15.0826 12.2397C14.674 12.3082 14.2873 12.0326 14.2188 11.6241C14.061 10.6833 13.3166 9.93898 12.3758 9.78114C11.9673 9.71261 11.6917 9.32589 11.7603 8.91739ZM8.92071 12.2929C9.31125 12.1548 9.73974 12.3595 9.87777 12.7501C10.1465 13.5103 10.813 14.0828 11.624 14.2189C12.0325 14.2874 12.3081 14.6741 12.2396 15.0826C12.1711 15.4911 11.7844 15.7667 11.3758 15.6982C10.0185 15.4705 8.91107 14.5162 8.46351 13.2499C8.32548 12.8594 8.53017 12.4309 8.92071 12.2929Z" fill="#3F3F3F"/>
</svg>
