<svg width="25" height="24" viewBox="0 0 25 24" fill="none" xmlns="http://www.w3.org/2000/svg">
<path fill-rule="evenodd" clip-rule="evenodd" d="M2.53258 21.2828C2.53258 20.929 2.8194 20.6422 3.1732 20.6422H22.3594C22.7132 20.6422 23 20.929 23 21.2828C23 21.6366 22.7132 21.9234 22.3594 21.9234H3.1732C2.8194 21.9234 2.53258 21.6366 2.53258 21.2828Z" fill="#3F3F3F"/>
<path fill-rule="evenodd" clip-rule="evenodd" d="M11.254 11.1952C11.4024 11.3169 11.4885 11.4987 11.4885 11.6906V21.2828C11.4885 21.6366 11.2016 21.9234 10.8478 21.9234H4.45274C4.09893 21.9234 3.81212 21.6366 3.81212 21.2828V12.9693C3.81212 12.6639 4.02768 12.401 4.32713 12.3411L10.7222 11.0624C10.9104 11.0248 11.1056 11.0735 11.254 11.1952ZM5.09336 13.4945V20.6422H10.2072V12.472L5.09336 13.4945Z" fill="#3F3F3F"/>
<path fill-rule="evenodd" clip-rule="evenodd" d="M10.4972 6.67866C10.6781 6.56032 10.9065 6.54121 11.1046 6.62785L21.3374 11.1037C21.5706 11.2057 21.7213 11.436 21.7213 11.6906V21.2828C21.7213 21.6366 21.4345 21.9234 21.0807 21.9234H10.8478C10.494 21.9234 10.2072 21.6366 10.2072 21.2828V7.21478C10.2072 6.9986 10.3163 6.79699 10.4972 6.67866ZM11.4885 8.19421V20.6422H20.4401V12.1096L11.4885 8.19421Z" fill="#3F3F3F"/>
<path fill-rule="evenodd" clip-rule="evenodd" d="M12.7654 11.3711C12.7654 11.0173 13.0523 10.7305 13.4061 10.7305C13.5321 10.7305 13.657 10.7553 13.7735 10.8036C13.8899 10.8518 13.9958 10.9226 14.0849 11.0117C14.1741 11.1009 14.2448 11.2067 14.2931 11.3232C14.3413 11.4397 14.3661 11.5645 14.3661 11.6906C14.3661 12.0444 14.0793 12.3312 13.7255 12.3312C13.4659 12.3312 13.2424 12.1768 13.1418 11.9549C12.9198 11.8542 12.7654 11.6307 12.7654 11.3711Z" fill="#3F3F3F"/>
<path fill-rule="evenodd" clip-rule="evenodd" d="M13.6693 11.9554C13.8918 11.8549 14.0467 11.6311 14.0467 11.3711C14.0467 11.0173 13.7599 10.7305 13.4061 10.7305C13.1516 10.7305 12.9076 10.8314 12.7275 11.0111C12.5473 11.1907 12.4458 11.4345 12.4451 11.6889C12.4442 12.0427 12.7302 12.3303 13.084 12.3312C13.344 12.3319 13.5683 12.1776 13.6693 11.9554Z" fill="#3F3F3F"/>
<path fill-rule="evenodd" clip-rule="evenodd" d="M13.6698 11.4269C13.5692 11.2046 13.3456 11.05 13.0857 11.05C12.7319 11.05 12.4451 11.3368 12.4451 11.6906C12.4451 11.9454 12.5464 12.1899 12.7266 12.3701C12.9068 12.5503 13.1512 12.6515 13.4061 12.6515C13.7599 12.6515 14.0467 12.3647 14.0467 12.0109C14.0467 11.7511 13.892 11.5274 13.6698 11.4269Z" fill="#3F3F3F"/>
<path fill-rule="evenodd" clip-rule="evenodd" d="M13.7238 11.05C14.0776 11.049 14.3652 11.3351 14.3661 11.6889C14.3665 11.8152 14.3419 11.9403 14.2938 12.0571C14.2457 12.1738 14.175 12.28 14.0858 12.3694C13.9967 12.4588 13.8907 12.5298 13.7741 12.5782C13.6574 12.6266 13.5324 12.6515 13.4061 12.6515C13.0523 12.6515 12.7654 12.3647 12.7654 12.0109C12.7654 11.7515 12.9196 11.5281 13.1413 11.4274C13.2415 11.2054 13.4644 11.0507 13.7238 11.05Z" fill="#3F3F3F"/>
<path fill-rule="evenodd" clip-rule="evenodd" d="M14.6873 16.8053C14.5174 16.8053 14.3545 16.8728 14.2343 16.9929C14.1142 17.1131 14.0467 17.276 14.0467 17.4459V20.6422H17.8833L17.8904 17.4459C17.8904 17.4457 17.8904 17.4461 17.8904 17.4459C17.8903 17.2762 17.8228 17.1129 17.7028 16.9929C17.5826 16.8728 17.4197 16.8053 17.2498 16.8053H14.6873ZM13.3283 16.087C13.6888 15.7265 14.1776 15.5241 14.6873 15.5241H17.2498C17.7595 15.5241 18.2483 15.7265 18.6087 16.087C18.9692 16.4474 19.1716 16.9362 19.1716 17.4459L19.1716 17.4474L19.1631 21.2842C19.1623 21.6375 18.8757 21.9234 18.5225 21.9234H13.4061C13.0523 21.9234 12.7654 21.6366 12.7654 21.2828V17.4459C12.7654 16.9362 12.9679 16.4474 13.3283 16.087Z" fill="#3F3F3F"/>
<path fill-rule="evenodd" clip-rule="evenodd" d="M11.476 11.5649C11.5454 11.9119 11.3204 12.2494 10.9735 12.3188L3.26641 13.8605C2.91948 13.9299 2.58197 13.7049 2.51257 13.358C2.44317 13.0111 2.66815 12.6736 3.01508 12.6042L10.7222 11.0624C11.0692 10.993 11.4066 11.218 11.476 11.5649Z" fill="#3F3F3F"/>
<path fill-rule="evenodd" clip-rule="evenodd" d="M8.94978 6.38404C9.09158 6.05989 9.4693 5.91207 9.79345 6.05386L22.6127 11.6614C22.9369 11.8032 23.0847 12.1809 22.9429 12.5051C22.8011 12.8292 22.4234 12.9771 22.0992 12.8353L9.27997 7.22771C8.95582 7.08591 8.80799 6.70819 8.94978 6.38404Z" fill="#3F3F3F"/>
<path fill-rule="evenodd" clip-rule="evenodd" d="M17.8819 7.21478C17.8819 6.86097 18.1687 6.57416 18.5225 6.57416H21.0807C21.4345 6.57416 21.7213 6.86097 21.7213 7.21478V11.6906C21.7213 12.0444 21.4345 12.3312 21.0807 12.3312C20.7269 12.3312 20.4401 12.0444 20.4401 11.6906V7.8554H19.1631V10.5639C19.1631 10.9178 18.8763 11.2046 18.5225 11.2046C18.1687 11.2046 17.8819 10.9178 17.8819 10.5639V7.21478Z" fill="#3F3F3F"/>
</svg>
