<svg width="108" height="118" viewBox="10.4001 10.8001 86.0001 96.4001" fill="none" xmlns="http://www.w3.org/2000/svg">
  <g filter="url(#filter0_d_955_3964)">
    <path d="M51.7002 96.0001C50.2002 95.5001 23.2002 80.1001 22.2002 79.1001C21.7002 78.7001 21.1002 77.9001 20.8002 77.4001C19.7002 75.5001 19.7002 75.2001 19.7002 58.5001C19.7002 41.3001 19.7002 41.4001 21.1002 39.2001C21.5002 38.6001 22.2002 37.8001 22.6002 37.5001C23.7002 36.7001 50.5002 21.4001 51.4002 21.1001C51.8002 20.9001 52.7002 20.8001 53.3002 20.7001C55.6002 20.4001 56.2002 20.7001 71.1002 29.2001C78.8002 33.6001 85.4002 37.5001 85.9002 38.0001C86.4002 38.5001 87.1002 39.5001 87.5002 40.3001L88.2002 41.7001V58.0001C88.3002 72.4001 88.2002 74.5001 87.9002 75.6001C87.5002 77.0001 86.8002 78.1001 85.8002 79.2001C84.8002 80.1001 57.3002 95.9001 56.1002 96.2001C54.8002 96.5001 53.0002 96.4001 51.7002 96.0001Z" fill="white"/>
    <path d="M51.5001 107.3C50.2001 107 49.3001 106.5 31.7001 96.3001C19.3001 89.1001 14.9001 86.5001 13.8001 85.6001C12.1001 84.0001 11.0001 82.0001 10.7001 79.6001C10.4001 77.4001 10.4001 40.7001 10.7001 38.5001C11.0001 36.1001 12.1001 34.1001 13.8001 32.5001C14.8001 31.6001 19.3001 28.9001 32.3001 21.4001C41.7001 16.0001 49.9001 11.3001 50.4001 11.1001C51.8001 10.5001 54.8001 10.4001 56.5001 10.8001C57.6001 11.1001 61.4001 13.1001 74.6001 20.8001C83.8001 26.1001 91.8001 30.8001 92.5001 31.2001C94.6001 32.5001 96.0001 34.3001 96.8001 36.7001C97.2001 37.8001 97.2001 38.9001 97.2001 59.0001C97.2001 79.1001 97.2001 80.1001 96.8001 81.3001C96.0001 83.7001 94.6001 85.5001 92.5001 86.8001C91.9001 87.2001 83.8001 91.9001 74.6001 97.2001C62.2001 104.4 57.5001 106.9 56.6001 107.2C55.3001 107.5 52.8001 107.6 51.5001 107.3ZM58.0001 99.9001C59.4001 99.4001 85.5001 84.6001 87.6001 83.1001C89.8001 81.6001 91.5001 79.0001 92.1001 76.2001C92.4001 75.1001 92.4001 72.1001 92.4001 58.5001C92.4001 47.5001 92.3001 41.8001 92.2001 41.0001C91.8001 38.9001 90.6001 36.7001 88.9001 35.0001C87.5001 33.6001 86.4001 32.9001 73.2001 25.4001C64.8001 20.6001 58.5001 17.2001 57.7001 16.9001C55.7001 16.2001 52.2001 16.2001 50.3001 16.9001C49.5001 17.2001 42.5001 21.0001 34.7001 25.5001C21.6001 33.0001 20.4001 33.7001 19.1001 35.0001C18.2001 35.9001 17.4001 37.0001 17.0001 37.9001C15.7001 40.6001 15.7001 40.7001 15.6001 58.4001C15.6001 73.7001 15.6001 74.6001 16.0001 76.2001C16.6001 78.5001 17.4001 79.9001 19.2001 81.7001C20.7001 83.2001 21.4001 83.6001 34.7001 91.2001C47.0001 98.2001 49.9001 99.8001 51.7001 100.2C52.8001 100.7 56.7001 100.4 58.0001 99.9001Z" fill="white"/>
  </g>
  <defs>
    <filter id="filter0_d_955_3964" x="4.4751" y="4.56006" width="98.7251" height="108.921" filterUnits="userSpaceOnUse" color-interpolation-filters="sRGB">
      <feFlood flood-opacity="0" result="BackgroundImageFix"/>
      <feColorMatrix in="SourceAlpha" type="matrix" values="0 0 0 0 0 0 0 0 0 0 0 0 0 0 0 0 0 0 127 0" result="hardAlpha"/>
      <feOffset/>
      <feGaussianBlur stdDeviation="3"/>
      <feComposite in2="hardAlpha" operator="out"/>
      <feColorMatrix type="matrix" values="0 0 0 0 0 0 0 0 0 0 0 0 0 0 0 0 0 0 0.15 0"/>
      <feBlend mode="normal" in2="BackgroundImageFix" result="effect1_dropShadow_955_3964"/>
      <feBlend mode="normal" in="SourceGraphic" in2="effect1_dropShadow_955_3964" result="shape"/>
    </filter>
  </defs>
</svg>

