<svg width="27" height="27" viewBox="0 0 27 27" fill="none" xmlns="http://www.w3.org/2000/svg">
<path fill-rule="evenodd" clip-rule="evenodd" d="M13.5 4.21875C8.99543 4.21875 5.34375 7.87043 5.34375 12.375C5.34375 16.747 8.82657 20.4784 13.5 22.6951C18.1734 20.4784 21.6562 16.747 21.6562 12.375C21.6562 7.87043 18.0046 4.21875 13.5 4.21875ZM3.65625 12.375C3.65625 6.93845 8.06345 2.53125 13.5 2.53125C18.9366 2.53125 23.3438 6.93845 23.3438 12.375C23.3438 17.8363 18.9416 22.0879 13.8479 24.3937C13.6268 24.4938 13.3732 24.4938 13.1521 24.3937C8.05838 22.0879 3.65625 17.8363 3.65625 12.375ZM13.5 9.84375C12.102 9.84375 10.9688 10.977 10.9688 12.375C10.9688 13.773 12.102 14.9062 13.5 14.9062C14.898 14.9062 16.0312 13.773 16.0312 12.375C16.0312 10.977 14.898 9.84375 13.5 9.84375ZM9.28125 12.375C9.28125 10.045 11.17 8.15625 13.5 8.15625C15.83 8.15625 17.7188 10.045 17.7188 12.375C17.7188 14.705 15.83 16.5938 13.5 16.5938C11.17 16.5938 9.28125 14.705 9.28125 12.375Z" fill="#3F3F3F"/>
</svg>
