<svg width="24" height="24" viewBox="0 0 24 24" fill="none" xmlns="http://www.w3.org/2000/svg">
<path fill-rule="evenodd" clip-rule="evenodd" d="M8.34378 4.42533L6.4984 7.00922H6.52838C6.69657 7.00922 6.86145 7.05606 7.00453 7.14449C7.1476 7.23291 7.26323 7.35944 7.33845 7.50987C7.41367 7.66031 7.44551 7.82873 7.43041 7.99625C7.4153 8.16376 7.35385 8.32376 7.25293 8.45832L4.71701 11.8395H5.3208C5.48899 11.8395 5.65387 11.8864 5.79695 11.9748C5.94002 12.0632 6.05565 12.1898 6.13087 12.3402C6.20609 12.4906 6.23793 12.6591 6.22283 12.8266C6.20772 12.9941 6.14627 13.1541 6.04535 13.2886L3.50943 16.6699H8.33975C8.67322 16.6699 8.94354 16.9402 8.94354 17.2737C8.94354 17.6071 8.67322 17.8775 8.33975 17.8775H2.90564C2.73744 17.8775 2.57257 17.8306 2.42949 17.7422C2.28641 17.6538 2.17079 17.5272 2.09557 17.3768C2.02035 17.2264 1.98851 17.0579 2.00361 16.8904C2.01872 16.7229 2.08017 16.5629 2.18109 16.4284L4.71701 13.0471H4.11322C3.94502 13.0471 3.78015 13.0003 3.63707 12.9119C3.49399 12.8234 3.37837 12.6969 3.30315 12.5465C3.22793 12.396 3.19609 12.2276 3.21119 12.0601C3.2263 11.8926 3.28775 11.7326 3.38867 11.598L5.92459 8.2168H5.90257C5.73655 8.2154 5.57412 8.16832 5.43306 8.08078C5.292 7.99323 5.17774 7.86856 5.1028 7.72042C5.02785 7.57227 4.99511 7.40637 5.00815 7.24086C5.02113 7.07603 5.07903 6.91793 5.17553 6.78371L7.60715 3.37895C7.69097 3.26179 7.80152 3.1663 7.92963 3.10043C8.05774 3.03456 8.19972 3.0002 8.34378 3.0002C8.48783 3.0002 8.62981 3.03456 8.75792 3.10043C8.88604 3.1663 8.99659 3.26179 9.0804 3.37895L11.5108 6.78204C11.5113 6.78265 11.5117 6.78325 11.5121 6.78386C11.6086 6.91805 11.6664 7.07609 11.6794 7.24086C11.6924 7.40637 11.6597 7.57228 11.5848 7.72042C11.5098 7.86856 11.3956 7.99323 11.2545 8.08078C11.1134 8.16832 10.951 8.21538 10.785 8.21678L10.7799 8.21683L10.755 8.2168L12.7329 10.8533C12.933 11.12 12.879 11.4985 12.6122 11.6986C12.3455 11.8987 11.967 11.8447 11.7669 11.578L9.42662 8.45838C9.3257 8.32382 9.2642 8.16376 9.2491 7.99625C9.23399 7.82873 9.26583 7.66031 9.34105 7.50987C9.41627 7.35944 9.5319 7.23291 9.67498 7.14449C9.81806 7.05606 9.98293 7.00922 10.1511 7.00922H10.1892L8.34378 4.42533Z" fill="#3F3F3F"/>
<path fill-rule="evenodd" clip-rule="evenodd" d="M7.90677 3.05597C8.04195 2.98646 8.19177 2.9502 8.34378 2.9502C8.49579 2.9502 8.6456 2.98646 8.78079 3.05597C8.91596 3.12547 9.03261 3.22621 9.12105 3.34984C9.12104 3.34983 9.12105 3.34985 9.12105 3.34984L11.5513 6.75274L11.5527 6.75468C11.5527 6.75467 11.5527 6.75469 11.5527 6.75468M8.34378 3.0502C8.20767 3.0502 8.07353 3.08266 7.95249 3.1449C7.83145 3.20713 7.727 3.29735 7.64782 3.40804L5.21622 6.81276C5.12505 6.93957 5.07026 7.08907 5.05799 7.24479C5.04567 7.40115 5.07661 7.55789 5.14741 7.69785C5.21822 7.8378 5.32616 7.95559 5.45943 8.03829C5.59264 8.12097 5.74601 8.16544 5.90277 8.1668H5.92459C5.94353 8.1668 5.96084 8.17751 5.96931 8.19444C5.97778 8.21138 5.97595 8.23165 5.96459 8.24681L3.42867 11.628C3.33332 11.7552 3.27526 11.9063 3.26099 12.0646C3.24672 12.2229 3.2768 12.382 3.34787 12.5241C3.41894 12.6663 3.52818 12.7858 3.66336 12.8693C3.79854 12.9529 3.95431 12.9971 4.11322 12.9971H4.71701C4.73595 12.9971 4.75326 13.0078 4.76173 13.0248C4.7702 13.0417 4.76837 13.062 4.75701 13.0771L2.22109 16.4584C2.12574 16.5855 2.06768 16.7367 2.05341 16.8949C2.03914 17.0532 2.06922 17.2123 2.14029 17.3544C2.21136 17.4966 2.3206 17.6161 2.45578 17.6997C2.59096 17.7832 2.74673 17.8275 2.90564 17.8275H8.33975C8.6456 17.8275 8.89354 17.5795 8.89354 17.2737C8.89354 16.9678 8.6456 16.7199 8.33975 16.7199H3.50943C3.49049 16.7199 3.47318 16.7092 3.46471 16.6922C3.45624 16.6753 3.45806 16.655 3.46943 16.6399L6.00535 13.2586C6.1007 13.1315 6.15876 12.9803 6.17303 12.8221C6.1873 12.6638 6.15722 12.5047 6.08615 12.3626C6.01508 12.2204 5.90584 12.1009 5.77066 12.0173C5.63548 11.9338 5.47971 11.8895 5.3208 11.8895H4.71701C4.69807 11.8895 4.68076 11.8788 4.67229 11.8619C4.66382 11.845 4.66565 11.8247 4.67701 11.8095L7.21293 8.42832C7.30828 8.30119 7.36634 8.15002 7.38061 7.99176C7.39488 7.83349 7.3648 7.67437 7.29373 7.53224C7.22266 7.3901 7.11342 7.27056 6.97824 7.18702C6.84306 7.10347 6.68729 7.05922 6.52838 7.05922H6.4984C6.47967 7.05922 6.46251 7.04876 6.45394 7.0321C6.44537 7.01545 6.44683 6.99541 6.45771 6.98017L8.30309 4.39627C8.31247 4.38313 8.32763 4.37533 8.34378 4.37533C8.35993 4.37533 8.37508 4.38313 8.38447 4.39627L10.2298 6.98017C10.2407 6.99541 10.2422 7.01545 10.2336 7.0321C10.225 7.04876 10.2079 7.05922 10.1892 7.05922H10.1511C9.99221 7.05922 9.83644 7.10347 9.70126 7.18702C9.56608 7.27056 9.45684 7.3901 9.38577 7.53224C9.31471 7.67437 9.28462 7.83349 9.29889 7.99176C9.31317 8.15002 9.37127 8.30125 9.46662 8.42838L11.8069 11.548C11.9904 11.7926 12.3376 11.8422 12.5822 11.6586C12.8269 11.4751 12.8764 11.128 12.6929 10.8833L10.715 8.24681C10.7036 8.23165 10.7018 8.21137 10.7103 8.19443C10.7188 8.17748 10.7361 8.16679 10.755 8.1668L10.7796 8.16683L10.7846 8.16679C10.9414 8.16546 11.0949 8.121 11.2281 8.03829C11.3614 7.95558 11.4693 7.8378 11.5401 7.69785C11.6109 7.55789 11.6419 7.40115 11.6296 7.24478C11.6173 7.08913 11.5626 6.93981 11.4715 6.81304L11.4703 6.81133L9.04002 3.40844C8.96083 3.29774 8.8561 3.20713 8.73506 3.1449C8.61402 3.08266 8.47988 3.0502 8.34378 3.0502ZM10.8528 8.26383L12.7729 10.8233C12.9896 11.1121 12.9311 11.5219 12.6422 11.7386C12.3534 11.9553 11.9436 11.8968 11.7269 11.608L9.38662 8.48839C9.28014 8.3464 9.21524 8.1775 9.1993 8.00074C9.18336 7.82397 9.21696 7.64626 9.29633 7.48751C9.3757 7.32877 9.49771 7.19526 9.64869 7.10195C9.78322 7.01881 9.936 6.97052 10.0933 6.96098L8.34378 4.51136L6.59394 6.96148C6.74848 6.9721 6.89848 7.02017 7.03081 7.10195C7.18179 7.19526 7.3038 7.32877 7.38317 7.48751C7.46254 7.64626 7.49614 7.82397 7.4802 8.00074C7.46427 8.1775 7.39942 8.34633 7.29293 8.48832L4.81701 11.7895H5.3208C5.49828 11.7895 5.67226 11.839 5.82323 11.9323C5.97421 12.0256 6.09622 12.1591 6.17559 12.3178C6.25496 12.4766 6.28856 12.6543 6.27262 12.8311C6.25668 13.0078 6.19184 13.1767 6.08535 13.3186L3.60943 16.6199H8.33975C8.70083 16.6199 8.99354 16.9126 8.99354 17.2737C8.99354 17.6347 8.70083 17.9275 8.33975 17.9275H2.90564C2.72816 17.9275 2.55418 17.878 2.4032 17.7847C2.25223 17.6914 2.13022 17.5579 2.05085 17.3992C1.97147 17.2404 1.93787 17.0627 1.95381 16.8859C1.96975 16.7092 2.0346 16.5403 2.14109 16.3984L4.61701 13.0971H4.11322C3.93574 13.0971 3.76176 13.0477 3.61078 12.9544C3.45981 12.8611 3.3378 12.7276 3.25843 12.5688C3.17905 12.4101 3.14546 12.2324 3.16139 12.0556C3.17733 11.8789 3.24218 11.71 3.34867 11.568L5.82727 8.26323C5.67839 8.25024 5.53426 8.20243 5.4067 8.12326C5.25784 8.03088 5.13727 7.89932 5.05818 7.74299C4.97909 7.58666 4.94454 7.41158 4.9583 7.23693C4.972 7.06304 5.03307 6.89624 5.13486 6.75462C5.13484 6.75466 5.13489 6.75459 5.13486 6.75462L7.56646 3.3499C7.6549 3.22626 7.77158 3.12548 7.90677 3.05597" fill="#3F3F3F"/>
<path fill-rule="evenodd" clip-rule="evenodd" d="M8.33975 16.6699C8.67322 16.6699 8.94354 16.9402 8.94354 17.2737L8.94354 20.8964C8.94354 21.2299 8.67322 21.5002 8.33975 21.5002C8.00629 21.5002 7.73596 21.2299 7.73596 20.8964V17.2737C7.73596 16.9402 8.00629 16.6699 8.33975 16.6699Z" fill="#3F3F3F"/>
<path fill-rule="evenodd" clip-rule="evenodd" d="M7.68596 17.2737C7.68596 16.9126 7.97867 16.6199 8.33975 16.6199C8.70083 16.6199 8.99354 16.9126 8.99354 17.2737V20.8964C8.99354 21.2575 8.70083 21.5502 8.33975 21.5502C7.97867 21.5502 7.68596 21.2575 7.68596 20.8964V17.2737ZM8.33975 16.7199C8.0339 16.7199 7.78596 16.9678 7.78596 17.2737V20.8964C7.78596 21.2023 8.0339 21.4502 8.33975 21.4502C8.6456 21.4502 8.89354 21.2023 8.89354 20.8964V17.2737C8.89354 16.9678 8.6456 16.7199 8.33975 16.7199Z" fill="#3F3F3F"/>
<path fill-rule="evenodd" clip-rule="evenodd" d="M13.1701 14.2547C13.0099 14.2547 12.8564 14.3183 12.7431 14.4316C12.6299 14.5448 12.5663 14.6984 12.5663 14.8585V18.4813C12.5663 18.8147 12.296 19.0851 11.9625 19.0851C11.629 19.0851 11.3587 18.8147 11.3587 18.4813V14.8585C11.3587 14.3781 11.5495 13.9174 11.8892 13.5777C12.2289 13.238 12.6897 13.0472 13.1701 13.0472H18.0004C18.4808 13.0472 18.9415 13.238 19.2812 13.5777C19.6209 13.9174 19.8118 14.3781 19.8118 14.8585V18.4813C19.8118 18.8147 19.5414 19.0851 19.208 19.0851C18.8745 19.0851 18.6042 18.8147 18.6042 18.4813V14.8585C18.6042 14.6984 18.5406 14.5448 18.4273 14.4316C18.3141 14.3183 18.1605 14.2547 18.0004 14.2547H13.1701Z" fill="#3F3F3F"/>
<path fill-rule="evenodd" clip-rule="evenodd" d="M11.8539 13.5423C12.203 13.1933 12.6764 12.9972 13.1701 12.9972H18.0004C18.4941 12.9972 18.9675 13.1933 19.3166 13.5423C19.6657 13.8914 19.8618 14.3649 19.8618 14.8585V18.4813C19.8618 18.8423 19.5691 19.1351 19.208 19.1351C18.8469 19.1351 18.5542 18.8423 18.5542 18.4813V14.8585C18.5542 14.7117 18.4958 14.5708 18.392 14.4669C18.2881 14.3631 18.1473 14.3047 18.0004 14.3047H13.1701C13.0232 14.3047 12.8823 14.3631 12.7785 14.4669C12.6746 14.5708 12.6163 14.7117 12.6163 14.8585V18.4813C12.6163 18.8423 12.3236 19.1351 11.9625 19.1351C11.6014 19.1351 11.3087 18.8423 11.3087 18.4813V14.8585C11.3087 14.3649 11.5048 13.8914 11.8539 13.5423ZM13.1701 13.0972C12.7029 13.0972 12.2549 13.2827 11.9246 13.613C11.5943 13.9434 11.4087 14.3914 11.4087 14.8585V18.4813C11.4087 18.7871 11.6566 19.0351 11.9625 19.0351C12.2683 19.0351 12.5163 18.7871 12.5163 18.4813V14.8585C12.5163 14.6851 12.5852 14.5188 12.7078 14.3962C12.8304 14.2736 12.9967 14.2047 13.1701 14.2047H18.0004C18.1738 14.2047 18.3401 14.2736 18.4627 14.3962C18.5853 14.5188 18.6542 14.6851 18.6542 14.8585V18.4813C18.6542 18.7871 18.9021 19.0351 19.208 19.0351C19.5138 19.0351 19.7618 18.7871 19.7618 18.4813V14.8585C19.7618 14.3914 19.5762 13.9434 19.2459 13.613C18.9156 13.2827 18.4675 13.0972 18.0004 13.0972H13.1701Z" fill="#3F3F3F"/>
<path fill-rule="evenodd" clip-rule="evenodd" d="M10.1511 18.4813C10.1511 18.1478 10.4214 17.8775 10.7549 17.8775H20.4156C20.749 17.8775 21.0194 18.1478 21.0194 18.4813C21.0194 18.8147 20.749 19.0851 20.4156 19.0851H10.7549C10.4214 19.0851 10.1511 18.8147 10.1511 18.4813Z" fill="#3F3F3F"/>
<path fill-rule="evenodd" clip-rule="evenodd" d="M10.1011 18.4813C10.1011 18.1202 10.3938 17.8275 10.7549 17.8275H20.4156C20.7766 17.8275 21.0694 18.1202 21.0694 18.4813C21.0694 18.8423 20.7766 19.1351 20.4156 19.1351H10.7549C10.3938 19.1351 10.1011 18.8423 10.1011 18.4813ZM10.7549 17.9275C10.4491 17.9275 10.2011 18.1754 10.2011 18.4813C10.2011 18.7871 10.4491 19.0351 10.7549 19.0351H20.4156C20.7214 19.0351 20.9694 18.7871 20.9694 18.4813C20.9694 18.1754 20.7214 17.9275 20.4156 17.9275H10.7549Z" fill="#3F3F3F"/>
<path fill-rule="evenodd" clip-rule="evenodd" d="M13.1701 17.8775C13.5035 17.8775 13.7739 18.1478 13.7739 18.4813V20.8964C13.7739 21.2299 13.5035 21.5002 13.1701 21.5002C12.8366 21.5002 12.5663 21.2299 12.5663 20.8964V18.4813C12.5663 18.1478 12.8366 17.8775 13.1701 17.8775Z" fill="#3F3F3F"/>
<path fill-rule="evenodd" clip-rule="evenodd" d="M12.5163 18.4813C12.5163 18.1202 12.809 17.8275 13.1701 17.8275C13.5312 17.8275 13.8239 18.1202 13.8239 18.4813V20.8964C13.8239 21.2575 13.5312 21.5502 13.1701 21.5502C12.809 21.5502 12.5163 21.2575 12.5163 20.8964V18.4813ZM13.1701 17.9275C12.8642 17.9275 12.6163 18.1754 12.6163 18.4813V20.8964C12.6163 21.2023 12.8642 21.4502 13.1701 21.4502C13.4759 21.4502 13.7239 21.2023 13.7239 20.8964V18.4813C13.7239 18.1754 13.4759 17.9275 13.1701 17.9275Z" fill="#3F3F3F"/>
<path fill-rule="evenodd" clip-rule="evenodd" d="M18.0004 17.8775C18.3339 17.8775 18.6042 18.1478 18.6042 18.4813V20.8964C18.6042 21.2299 18.3339 21.5002 18.0004 21.5002C17.6669 21.5002 17.3966 21.2299 17.3966 20.8964V18.4813C17.3966 18.1478 17.6669 17.8775 18.0004 17.8775Z" fill="#3F3F3F"/>
<path fill-rule="evenodd" clip-rule="evenodd" d="M17.3466 18.4813C17.3466 18.1202 17.6393 17.8275 18.0004 17.8275C18.3615 17.8275 18.6542 18.1202 18.6542 18.4813V20.8964C18.6542 21.2575 18.3615 21.5502 18.0004 21.5502C17.6393 21.5502 17.3466 21.2575 17.3466 20.8964V18.4813ZM18.0004 17.9275C17.6945 17.9275 17.4466 18.1754 17.4466 18.4813V20.8964C17.4466 21.2023 17.6945 21.4502 18.0004 21.4502C18.3062 21.4502 18.5542 21.2023 18.5542 20.8964V18.4813C18.5542 18.1754 18.3062 17.9275 18.0004 17.9275Z" fill="#3F3F3F"/>
</svg>
