<svg width="108" height="116" viewBox="0 0 108 116" fill="none" xmlns="http://www.w3.org/2000/svg">
<g filter="url(#filter0_d_1601_793)">
<path d="M46.5 8.33013C51.141 5.65064 56.859 5.65064 61.5 8.33013L89.8013 24.6699C94.4423 27.3494 97.3013 32.3013 97.3013 37.6603V70.3397C97.3013 75.6987 94.4423 80.6506 89.8013 83.3301L61.5 99.6699C56.859 102.349 51.141 102.349 46.5 99.6699L18.1987 83.3301C13.5577 80.6506 10.6987 75.6987 10.6987 70.3397V37.6603C10.6987 32.3013 13.5577 27.3494 18.1987 24.6699L46.5 8.33013Z" fill="white"/>
</g>
<path fill-rule="evenodd" clip-rule="evenodd" d="M55.0861 43.2957L60.9192 48.2657C60.926 48.2714 60.9325 48.2774 60.9387 48.2837C61.3466 48.6916 61.3466 49.3529 60.9387 49.7608C60.9318 49.7677 60.9246 49.7743 60.9171 49.7805L55.8825 54L60.9171 58.2195C60.9246 58.2257 60.9318 58.2323 60.9387 58.2392C61.3466 58.6471 61.3466 59.3084 60.9387 59.7163C60.9325 59.7226 60.926 59.7286 60.9192 59.7343L55.0861 64.7043C54.7874 64.9948 54.344 65.0803 53.9582 64.9205C53.5679 64.7588 53.3135 64.378 53.3135 63.9555V56.4307L48.5277 60.4387C48.1191 60.8353 47.47 60.8315 47.066 60.4274C46.6581 60.0196 46.6579 59.3583 47.0659 58.9504C47.0719 58.9443 47.0782 58.9385 47.0847 58.933L52.84 54L47.0847 49.0671C47.0782 49.0615 47.0719 49.0557 47.0659 49.0497C46.6579 48.6417 46.6581 47.9804 47.066 47.5726C47.47 47.1685 48.1191 47.1648 48.5277 47.5613L53.3135 51.5693V44.0445C53.3135 43.622 53.5679 43.2412 53.9582 43.0795C54.344 42.9197 54.7874 43.0052 55.0861 43.2957ZM55.4023 46.449V51.5955L58.6625 49.0222L55.4023 46.449ZM55.4023 56.4045V61.551L58.6625 58.9778L55.4023 56.4045Z" fill="url(#paint0_linear_1601_793)"/>
<defs>
<filter id="filter0_d_1601_793" x="0.69873" y="0.320511" width="106.603" height="115.359" filterUnits="userSpaceOnUse" color-interpolation-filters="sRGB">
<feFlood flood-opacity="0" result="BackgroundImageFix"/>
<feColorMatrix in="SourceAlpha" type="matrix" values="0 0 0 0 0 0 0 0 0 0 0 0 0 0 0 0 0 0 127 0" result="hardAlpha"/>
<feOffset dy="4"/>
<feGaussianBlur stdDeviation="5"/>
<feComposite in2="hardAlpha" operator="out"/>
<feColorMatrix type="matrix" values="0 0 0 0 0 0 0 0 0 0 0 0 0 0 0 0 0 0 0.05 0"/>
<feBlend mode="normal" in2="BackgroundImageFix" result="effect1_dropShadow_1601_793"/>
<feBlend mode="normal" in="SourceGraphic" in2="effect1_dropShadow_1601_793" result="shape"/>
</filter>
<linearGradient id="paint0_linear_1601_793" x1="46.76" y1="43" x2="72.9359" y2="60.6033" gradientUnits="userSpaceOnUse">
<stop offset="0.104539" stop-color="#BCE260"/>
<stop offset="1" stop-color="#38AF68"/>
</linearGradient>
</defs>
</svg>
