<svg width="18" height="20" viewBox="0 0 18 20" fill="none" xmlns="http://www.w3.org/2000/svg">
<path fill-rule="evenodd" clip-rule="evenodd" d="M10.339 5.55749L12.7962 6.97617C13.4485 7.35279 13.8504 8.0488 13.8504 8.80204V11.6394C13.8504 12.3926 13.4485 13.0886 12.7962 13.4653L10.339 14.8839C9.68667 15.2606 8.88298 15.2606 8.23066 14.8839L5.77344 13.4653C5.12112 13.0886 4.71927 12.3926 4.71927 11.6394V8.80204C4.71927 8.0488 5.12112 7.35279 5.77344 6.97617L8.23066 5.55749C8.88298 5.18087 9.68667 5.18087 10.339 5.55749ZM9.74316 6.5895C9.45954 6.42576 9.11011 6.42576 8.82649 6.5895L6.36927 8.00818C6.08565 8.17193 5.91094 8.47455 5.91094 8.80204V11.6394C5.91094 11.9669 6.08565 12.2695 6.36927 12.4333L8.82649 13.8519C9.11011 14.0157 9.45954 14.0157 9.74316 13.8519L12.2004 12.4333C12.484 12.2695 12.6587 11.9669 12.6587 11.6394V8.80204C12.6587 8.47455 12.484 8.17193 12.2004 8.00818L9.74316 6.5895Z" fill="url(#paint0_linear_1731_208)"/>
<path fill-rule="evenodd" clip-rule="evenodd" d="M10.7973 1.23877L16.3072 4.41988C17.2431 4.96024 17.8197 5.95888 17.8197 7.0396V13.4018C17.8197 14.4825 17.2431 15.4812 16.3072 16.0215L10.7973 19.2027C9.8614 19.743 8.70828 19.743 7.77234 19.2027L2.2625 16.0215C1.32656 15.4812 0.75 14.4825 0.75 13.4018V7.0396C0.75 5.95888 1.32656 4.96024 2.2625 4.41988L7.77234 1.23877C8.70828 0.698405 9.8614 0.698405 10.7973 1.23877ZM10.2015 2.27078C9.63427 1.94329 8.93541 1.94329 8.36817 2.27078L2.85833 5.45189C2.2911 5.77938 1.94167 6.38462 1.94167 7.0396V13.4018C1.94167 14.0568 2.2911 14.662 2.85833 14.9895L8.36817 18.1706C8.93541 18.4981 9.63427 18.4981 10.2015 18.1706L15.7113 14.9895C16.2786 14.662 16.628 14.0568 16.628 13.4018V7.0396C16.628 6.38462 16.2786 5.77938 15.7113 5.45189L10.2015 2.27078Z" fill="url(#paint1_linear_1731_208)"/>
<defs>
<linearGradient id="paint0_linear_1731_208" x1="0.75" y1="0.833496" x2="24.8035" y2="23.1715" gradientUnits="userSpaceOnUse">
<stop offset="0.104539" stop-color="#E4E4E4"/>
<stop offset="1" stop-color="#E4E4E4"/>
</linearGradient>
<linearGradient id="paint1_linear_1731_208" x1="0.75" y1="0.833496" x2="24.8035" y2="23.1715" gradientUnits="userSpaceOnUse">
<stop offset="0.104539" stop-color="#E4E4E4"/>
<stop offset="1" stop-color="#E4E4E4"/>
</linearGradient>
</defs>
</svg>
