<svg width="29" height="29" viewBox="0 0 29 29" fill="none" xmlns="http://www.w3.org/2000/svg">
<path d="M14.493 1.20825C14.8939 1.20825 15.219 1.5333 15.219 1.93427V3.60969C15.219 4.01065 14.8939 4.3357 14.493 4.3357C14.092 4.3357 13.7669 4.01065 13.7669 3.60969V1.93427C13.7669 1.5333 14.092 1.20825 14.493 1.20825Z" fill="#3F3F3F"/>
<path d="M23.2997 4.85668C23.5832 5.14021 23.5832 5.59989 23.2997 5.88342L22.1146 7.0685C21.8311 7.35203 21.3714 7.35203 21.0879 7.0685C20.8043 6.78498 20.8043 6.32529 21.0879 6.04176L22.2729 4.85668C22.5565 4.57315 23.0162 4.57315 23.2997 4.85668Z" fill="#3F3F3F"/>
<path d="M6.71302 4.85668C6.42949 4.57315 5.9698 4.57315 5.68628 4.85668C5.40275 5.14021 5.40275 5.59989 5.68628 5.88342L6.87136 7.0685C7.15489 7.35203 7.61457 7.35203 7.8981 7.0685C8.18163 6.78498 8.18163 6.32529 7.8981 6.04176L6.71302 4.85668Z" fill="#3F3F3F"/>
<path fill-rule="evenodd" clip-rule="evenodd" d="M9.24079 18.9144C9.60166 19.2753 9.99584 19.5952 10.4161 19.8711V22.0371C10.4161 23.1183 10.8456 24.1553 11.6102 24.9198C12.2133 25.523 12.9721 25.8944 13.7669 26.0342V27.0656C13.7669 27.4665 14.092 27.7916 14.493 27.7916C14.8939 27.7916 15.219 27.4665 15.219 27.0656V26.0342C16.0138 25.8944 16.7726 25.523 17.3757 24.9198C18.1403 24.1553 18.5698 23.1183 18.5698 22.0371V19.8711C18.9901 19.5952 19.3843 19.2753 19.7451 18.9144C21.1381 17.5214 21.9207 15.6322 21.9207 13.6622C21.9207 11.6923 21.1381 9.803 19.7451 8.41003C18.3522 7.01707 16.4629 6.23451 14.493 6.23451C12.523 6.23451 10.6338 7.01707 9.24079 8.41003C7.84783 9.803 7.06527 11.6923 7.06527 13.6622C7.06527 15.6322 7.84783 17.5214 9.24079 18.9144ZM11.8681 22.0371V20.6107C12.6991 20.9246 13.5875 21.0899 14.493 21.0899C15.3984 21.0899 16.2868 20.9246 17.1178 20.6107V22.0371C17.1178 22.7332 16.8412 23.4009 16.349 23.8931C15.3381 24.904 13.6479 24.904 12.6369 23.8931C12.1447 23.4009 11.8681 22.7332 11.8681 22.0371ZM14.493 7.68654C12.9081 7.68654 11.3882 8.31612 10.2675 9.43677C9.14688 10.5574 8.5173 12.0774 8.5173 13.6622C8.5173 15.2471 9.14688 16.767 10.2675 17.8876C11.3882 19.0083 12.9081 19.6379 14.493 19.6379C16.0778 19.6379 17.5977 19.0083 18.7184 17.8876C19.8391 16.767 20.4686 15.2471 20.4686 13.6622C20.4686 12.0774 19.8391 10.5574 18.7184 9.43677C17.5977 8.31612 16.0778 7.68654 14.493 7.68654Z" fill="#3F3F3F"/>
</svg>
