<svg width="17" height="22" viewBox="0 0 18 23" fill="none" xmlns="http://www.w3.org/2000/svg">
<path fill-rule="evenodd" clip-rule="evenodd" d="M8.95748 2.35944C8.90736 2.35944 8.858 2.37177 8.81367 2.39536C8.76933 2.41895 8.73136 2.45309 8.70303 2.49483L8.69911 2.50061C7.6559 4.01823 6.13143 6.33793 4.87254 8.64519C4.24274 9.79947 3.69105 10.9296 3.29967 11.9407C2.89876 12.9765 2.7072 13.7851 2.7072 14.3298C2.7072 16.0035 3.36571 17.6087 4.53787 18.7922C5.71002 19.9757 7.2998 20.6406 8.95748 20.6406C10.6152 20.6406 12.2049 19.9757 13.3771 18.7922C14.5492 17.6087 15.2078 16.0035 15.2078 14.3298C15.2078 13.7852 15.0162 12.9768 14.6153 11.9413C14.2239 10.9304 13.6723 9.80056 13.0425 8.64644C11.7835 6.33952 10.259 4.01974 9.21554 2.50013L9.21191 2.49484C9.18358 2.4531 9.14562 2.41895 9.10129 2.39536C9.05695 2.37177 9.00759 2.35944 8.95748 2.35944ZM7.7242 0.30803C8.1044 0.105726 8.5277 0 8.95748 0C9.38725 0 9.81055 0.105726 10.1908 0.30803C10.5699 0.509761 10.8948 0.801465 11.1375 1.15802C12.2003 2.70576 13.7751 5.09978 15.0892 7.50781C15.7462 8.71176 16.3497 9.94032 16.7918 11.0823C17.2244 12.1996 17.5446 13.3385 17.5446 14.3298C17.5446 16.6293 16.6399 18.8346 15.0295 20.4606C13.4191 22.0865 11.2349 23 8.95748 23C6.68003 23 4.49587 22.0865 2.88547 20.4606C1.27507 18.8346 0.370361 16.6293 0.370361 14.3298C0.370361 13.3386 0.690577 12.1994 1.12314 11.0819C1.56523 9.93972 2.16872 8.71087 2.82574 7.5067C4.1398 5.09833 5.71457 2.70437 6.77762 1.15778C7.02032 0.801329 7.34516 0.509714 7.7242 0.30803Z" fill="#3F3F3F"/>
</svg>
