<svg width="18" height="20" viewBox="0 0 20 13" fill="none" xmlns="http://www.w3.org/2000/svg">
<path fill-rule="evenodd" clip-rule="evenodd" d="M11.5971 0.690999C12.073 -0.260854 13.4448 -0.220537 13.864 0.757617L16.2445 6.31217H18.75C19.1642 6.31217 19.5 6.64795 19.5 7.06217C19.5 7.47638 19.1642 7.81217 18.75 7.81217H16.0797C15.5797 7.81217 15.1277 7.51417 14.9308 7.05457L12.6976 1.84394L8.86803 9.50315C8.40738 10.4245 7.09262 10.4245 6.63197 9.50315L4.65715 5.55352L3.52247 7.25554C3.29064 7.60329 2.90035 7.81217 2.48241 7.81217H0.75C0.335786 7.81217 0 7.47638 0 7.06217C0 6.64795 0.335786 6.31217 0.75 6.31217H2.34861L3.64804 4.36303C4.18043 3.56445 5.37691 3.63893 5.80613 4.49739L7.75 8.38512L11.5971 0.690999Z" fill="url(#paint0_linear_2318_2142)"/>
<defs>
<linearGradient id="paint0_linear_2318_2142" x1="0" y1="0" x2="20" y2="12" gradientUnits="userSpaceOnUse">
<stop stop-color="#BCE260"/>
<stop offset="1" stop-color="#38AF68"/>
</linearGradient>
</defs>
</svg>
