<svg width="24" height="24" viewBox="0 0 24 24" fill="none" xmlns="http://www.w3.org/2000/svg">
<path fill-rule="evenodd" clip-rule="evenodd" d="M11.5159 3C11.8352 3 12.094 3.25884 12.094 3.57815V4.76075C13.5687 4.89532 14.9572 5.54151 16.0128 6.59712C17.2055 7.78978 17.8755 9.40736 17.8755 11.094C17.8755 13.7733 18.1612 15.2996 18.4266 16.1358C18.5587 16.5523 18.684 16.7917 18.762 16.9153C18.8009 16.977 18.828 17.0098 18.8383 17.0216L18.8402 17.0237C19.0131 17.1791 19.0768 17.4242 18.999 17.6454C18.9176 17.8769 18.699 18.0318 18.4536 18.0318H4.57815C4.35701 18.0318 4.15524 17.9056 4.05839 17.7068C3.96278 17.5105 3.98598 17.2774 4.11777 17.1039L4.11865 17.1027C4.12158 17.0985 4.12869 17.0882 4.13941 17.0713C4.16083 17.0375 4.19678 16.977 4.2427 16.886C4.33449 16.7042 4.46651 16.3996 4.60179 15.9412C4.87248 15.0239 5.1563 13.4904 5.1563 11.094C5.1563 9.40736 5.82632 7.78978 7.01898 6.59712C8.07459 5.54151 9.4631 4.89532 10.9377 4.76075V3.57815C10.9377 3.25884 11.1966 3 11.5159 3ZM5.50718 16.8755H17.4617C17.4159 16.7583 17.3699 16.6287 17.3244 16.4855C17.0116 15.4997 16.7192 13.8463 16.7192 11.094C16.7192 9.71403 16.171 8.39055 15.1952 7.41474C14.2194 6.43893 12.8959 5.89073 11.5159 5.89073C10.1359 5.89073 8.81241 6.43893 7.8366 7.41474C6.86079 8.39055 6.31259 9.71403 6.31259 11.094C6.31259 13.5803 6.01826 15.2266 5.7108 16.2685C5.64254 16.4998 5.57364 16.7013 5.50718 16.8755ZM9.81133 19.2115C10.1177 19.1215 10.439 19.297 10.5289 19.6034C10.5916 19.817 10.7219 20.0047 10.9002 20.1381C11.0784 20.2716 11.2951 20.3437 11.5178 20.3437C11.7405 20.3437 11.9572 20.2716 12.1355 20.1381C12.3138 20.0047 12.444 19.817 12.5067 19.6034C12.5967 19.297 12.9179 19.1215 13.2243 19.2115C13.5307 19.3014 13.7061 19.6227 13.6162 19.9291C13.4831 20.3825 13.2067 20.7806 12.8285 21.0638C12.4502 21.3469 11.9904 21.5 11.5178 21.5C11.0453 21.5 10.5855 21.3469 10.2072 21.0638C9.82891 20.7806 9.55254 20.3825 9.41944 19.9291C9.3295 19.6227 9.50495 19.3014 9.81133 19.2115Z" fill="url(#paint0_linear_2130_1706)"/>
<defs>
<linearGradient id="paint0_linear_2130_1706" x1="4" y1="3" x2="27.3598" y2="22.3873" gradientUnits="userSpaceOnUse">
<stop offset="0.104539" stop-color="#BCE260"/>
<stop offset="1" stop-color="#38AF68"/>
</linearGradient>
</defs>
</svg>
