<svg width="22" height="22" viewBox="0 0 24 24" fill="none" xmlns="http://www.w3.org/2000/svg">
<path fill-rule="evenodd" clip-rule="evenodd" d="M11.75 3C12.052 3 12.2969 3.24484 12.2969 3.54688V12.3516C13.545 12.6049 14.4844 13.7084 14.4844 15.0312C14.4844 16.3541 13.545 17.4576 12.2969 17.7109V19.9531C12.2969 20.2552 12.052 20.5 11.75 20.5C11.448 20.5 11.2031 20.2552 11.2031 19.9531V17.7109C9.95502 17.4576 9.01562 16.3541 9.01562 15.0312C9.01562 13.7084 9.95502 12.6049 11.2031 12.3516V3.54688C11.2031 3.24484 11.448 3 11.75 3ZM11.75 16.6719C12.6561 16.6719 13.3906 15.9373 13.3906 15.0312C13.3906 14.1252 12.6561 13.3906 11.75 13.3906C10.8439 13.3906 10.1094 14.1252 10.1094 15.0312C10.1094 15.9373 10.8439 16.6719 11.75 16.6719ZM3 9.5625C3 10.8854 3.9394 11.9888 5.1875 12.2422V19.9531C5.1875 20.2552 5.43234 20.5 5.73438 20.5C6.03641 20.5 6.28125 20.2552 6.28125 19.9531V12.2422C7.52935 11.9888 8.46875 10.8854 8.46875 9.5625C8.46875 8.23963 7.52935 7.13617 6.28125 6.88282V3.54688C6.28125 3.24484 6.03641 3 5.73438 3C5.43234 3 5.1875 3.24484 5.1875 3.54688V6.88282C3.9394 7.13617 3 8.23963 3 9.5625ZM4.09375 9.5625C4.09375 8.65641 4.82828 7.92188 5.73438 7.92188C6.64047 7.92188 7.375 8.65641 7.375 9.5625C7.375 10.4686 6.64047 11.2031 5.73438 11.2031C4.82828 11.2031 4.09375 10.4686 4.09375 9.5625ZM17.7656 11.2031C18.6717 11.2031 19.4062 10.4686 19.4062 9.5625C19.4062 8.65641 18.6717 7.92188 17.7656 7.92188C16.8595 7.92188 16.125 8.65641 16.125 9.5625C16.125 10.4686 16.8595 11.2031 17.7656 11.2031ZM18.3125 6.88282V3.54688C18.3125 3.24484 18.0677 3 17.7656 3C17.4636 3 17.2188 3.24484 17.2188 3.54688V6.88282C15.9706 7.13617 15.0312 8.23963 15.0312 9.5625C15.0312 10.8854 15.9706 11.9888 17.2188 12.2422V19.9531C17.2188 20.2552 17.4636 20.5 17.7656 20.5C18.0677 20.5 18.3125 20.2552 18.3125 19.9531V12.2422C19.5606 11.9888 20.5 10.8854 20.5 9.5625C20.5 8.23963 19.5606 7.13617 18.3125 6.88282Z" fill="url(#paint0_linear_2130_1701)"/>
<defs>
<linearGradient id="paint0_linear_2130_1701" x1="3" y1="3" x2="25.4771" y2="25.9587" gradientUnits="userSpaceOnUse">
<stop offset="0.104539" stop-color="#BCE260"/>
<stop offset="1" stop-color="#38AF68"/>
</linearGradient>
</defs>
</svg>
