<svg width="24" height="24" viewBox="0 0 24 24" fill="none" xmlns="http://www.w3.org/2000/svg">
<path d="M3.36244 3.36244C3.59451 3.13037 3.90926 3 4.23746 3H12.6315C12.9597 3 13.2745 3.13037 13.5066 3.36244C13.7386 3.59451 13.869 3.90926 13.869 4.23746V6.9083C13.869 7.17028 13.6566 7.38266 13.3946 7.38266C13.1327 7.38266 12.9203 7.17028 12.9203 6.9083V4.23746C12.9203 4.16088 12.8899 4.08744 12.8357 4.03329C12.7816 3.97914 12.7081 3.94872 12.6315 3.94872H4.23746C4.16088 3.94872 4.08744 3.97914 4.03329 4.03329C3.97914 4.08744 3.94872 4.16088 3.94872 4.23746V20.2625C3.94872 20.3391 3.97914 20.4125 4.03329 20.4667C4.08744 20.5208 4.16088 20.5513 4.23746 20.5513H12.6315C12.7081 20.5513 12.7816 20.5208 12.8357 20.4667C12.8899 20.4125 12.9203 20.3391 12.9203 20.2625V17.5917C12.9203 17.3297 13.1327 17.1173 13.3946 17.1173C13.6566 17.1173 13.869 17.3297 13.869 17.5917V20.2625C13.869 20.5907 13.7386 20.9055 13.5066 21.1375C13.2745 21.3696 12.9597 21.5 12.6315 21.5H4.23746C3.90926 21.5 3.59451 21.3696 3.36244 21.1375C3.13037 20.9055 3 20.5907 3 20.2625V4.23746C3 3.90926 3.13037 3.59451 3.36244 3.36244Z" fill="#3F3F3F"/>
<path d="M6.05241 12.25C6.05241 11.988 6.26479 11.7756 6.52677 11.7756H19.8804L16.8747 8.76993C16.6895 8.58468 16.6895 8.28434 16.8747 8.09909C17.06 7.91384 17.3603 7.91384 17.5456 8.09909L21.3587 11.9122C21.3672 11.9206 21.3753 11.9292 21.3831 11.9382C21.4151 11.9748 21.4406 12.0152 21.4594 12.0578C21.4824 12.1095 21.4964 12.1661 21.4994 12.2256C21.4998 12.2337 21.5 12.2418 21.5 12.25C21.5 12.3143 21.4872 12.3756 21.464 12.4316C21.4409 12.4875 21.4065 12.5399 21.3611 12.5854L17.5456 16.4009C17.3603 16.5862 17.06 16.5862 16.8747 16.4009C16.6895 16.2157 16.6895 15.9153 16.8747 15.7301L19.8804 12.7244H6.52677C6.26479 12.7244 6.05241 12.512 6.05241 12.25Z" fill="#3F3F3F"/>
<path d="M3.36244 3.36244C3.59451 3.13037 3.90926 3 4.23746 3H12.6315C12.9597 3 13.2745 3.13037 13.5066 3.36244C13.7386 3.59451 13.869 3.90926 13.869 4.23746V6.9083C13.869 7.17028 13.6566 7.38266 13.3946 7.38266C13.1327 7.38266 12.9203 7.17028 12.9203 6.9083V4.23746C12.9203 4.16088 12.8899 4.08744 12.8357 4.03329C12.7816 3.97914 12.7081 3.94872 12.6315 3.94872H4.23746C4.16088 3.94872 4.08744 3.97914 4.03329 4.03329C3.97914 4.08744 3.94872 4.16088 3.94872 4.23746V20.2625C3.94872 20.3391 3.97914 20.4125 4.03329 20.4667C4.08744 20.5208 4.16088 20.5513 4.23746 20.5513H12.6315C12.7081 20.5513 12.7816 20.5208 12.8357 20.4667C12.8899 20.4125 12.9203 20.3391 12.9203 20.2625V17.5917C12.9203 17.3297 13.1327 17.1173 13.3946 17.1173C13.6566 17.1173 13.869 17.3297 13.869 17.5917V20.2625C13.869 20.5907 13.7386 20.9055 13.5066 21.1375C13.2745 21.3696 12.9597 21.5 12.6315 21.5H4.23746C3.90926 21.5 3.59451 21.3696 3.36244 21.1375C3.13037 20.9055 3 20.5907 3 20.2625V4.23746C3 3.90926 3.13037 3.59451 3.36244 3.36244Z" stroke="#3F3F3F" stroke-width="0.3" stroke-linecap="round" stroke-linejoin="round"/>
<path d="M6.05241 12.25C6.05241 11.988 6.26479 11.7756 6.52677 11.7756H19.8804L16.8747 8.76993C16.6895 8.58468 16.6895 8.28434 16.8747 8.09909C17.06 7.91384 17.3603 7.91384 17.5456 8.09909L21.3587 11.9122C21.3672 11.9206 21.3753 11.9292 21.3831 11.9382C21.4151 11.9748 21.4406 12.0152 21.4594 12.0578C21.4824 12.1095 21.4964 12.1661 21.4994 12.2256C21.4998 12.2337 21.5 12.2418 21.5 12.25C21.5 12.3143 21.4872 12.3756 21.464 12.4316C21.4409 12.4875 21.4065 12.5399 21.3611 12.5854L17.5456 16.4009C17.3603 16.5862 17.06 16.5862 16.8747 16.4009C16.6895 16.2157 16.6895 15.9153 16.8747 15.7301L19.8804 12.7244H6.52677C6.26479 12.7244 6.05241 12.512 6.05241 12.25Z" stroke="#3F3F3F" stroke-width="0.3" stroke-linecap="round" stroke-linejoin="round"/>
</svg>
