<svg width="22" height="24" viewBox="0 0 22 26" fill="none" xmlns="http://www.w3.org/2000/svg">
<path fill-rule="evenodd" clip-rule="evenodd" d="M13.1931 2.13637C12.3122 1.72333 11.5728 1.50056 10.9985 1.5C10.4171 1.49944 9.66746 1.72621 8.77464 2.14722C8.09176 2.46923 7.44321 2.8445 6.80756 3.21229C6.61898 3.32141 6.43154 3.42987 6.24467 3.53609C6.06256 3.6396 5.87848 3.74248 5.69341 3.84592C5.06032 4.19976 4.41554 4.56014 3.79756 4.97472C2.99315 5.51438 2.41451 6.03288 2.10644 6.52737C1.81768 6.99084 1.6339 7.73219 1.55334 8.72298C1.49176 9.48044 1.49773 10.2361 1.50353 10.9708C1.50521 11.1841 1.50688 11.3955 1.50688 11.6048C1.50688 11.8139 1.50521 12.0253 1.50353 12.2384C1.49773 12.973 1.49177 13.7283 1.55342 14.4855C1.63406 15.4757 1.81798 16.2163 2.10677 16.6791C2.41563 17.1741 2.99494 17.6935 3.79906 18.2339C4.42063 18.6515 5.0703 19.015 5.70704 19.3712C5.8876 19.4722 6.06712 19.5726 6.24467 19.6735C6.42704 19.7772 6.61011 19.883 6.79435 19.9895C7.43367 20.3591 8.08709 20.7368 8.77415 21.0602C9.66711 21.4806 10.4178 21.7076 11.0002 21.7077C11.5824 21.7078 12.3329 21.4809 13.2258 21.0605C13.9123 20.7373 14.5651 20.3599 15.2039 19.9906C15.3887 19.8837 15.5723 19.7775 15.7553 19.6735C15.9335 19.5723 16.1136 19.4715 16.2947 19.3702C16.931 19.0143 17.5801 18.6512 18.2012 18.2339C19.0054 17.6937 19.5846 17.1744 19.8933 16.6794C20.1821 16.2165 20.3659 15.4758 20.4466 14.4855C20.5082 13.7284 20.5022 12.973 20.4964 12.2384C20.4948 12.0253 20.4931 11.8139 20.4931 11.6048C20.4931 11.3955 20.4948 11.184 20.4965 10.9707C20.5023 10.2361 20.5083 9.48066 20.4466 8.72345C20.3658 7.73288 20.1817 6.99258 19.8928 6.53037C19.5785 6.02765 18.9888 5.50076 18.1725 4.95409C17.538 4.52918 16.8738 4.15943 16.2251 3.79838C16.0465 3.69896 15.8691 3.60019 15.6938 3.50111C15.5095 3.39697 15.3248 3.29073 15.1391 3.18391C14.5094 2.82171 13.868 2.45283 13.1931 2.13637ZM15.9194 1.90204C14.4671 1.06632 12.6168 0.00157579 11 1.74281e-06C9.36483 -0.00158703 7.49059 1.08341 6.02346 1.93273C5.8436 2.03685 5.66986 2.13743 5.50344 2.23203C5.34059 2.32459 5.16952 2.42015 4.99271 2.51893C3.53441 3.3336 1.68537 4.36656 0.833307 5.73418C-0.0281393 7.11688 -0.0101167 9.33111 0.00363979 11.0212C0.00529099 11.2241 0.00688074 11.4194 0.00688074 11.6048C0.00688074 11.7901 0.0052923 11.9852 0.0036425 12.1879C-0.0101102 13.8776 -0.0281268 16.0912 0.834174 17.4732C1.68911 18.8434 3.54439 19.8807 5.00439 20.6971C5.17704 20.7936 5.34415 20.8871 5.50344 20.9776C5.66639 21.0702 5.83635 21.1685 6.01222 21.2702C7.48125 22.1199 9.36161 23.2074 11 23.2077C12.6379 23.208 14.5175 22.1207 15.9863 21.2711C16.1627 21.1691 16.3331 21.0705 16.4965 20.9776C16.6563 20.8868 16.8239 20.7931 16.9971 20.6962C18.457 19.8801 20.3115 18.8432 21.166 17.4733C22.0281 16.0912 22.0101 13.8776 21.9963 12.188C21.9947 11.9853 21.9931 11.7901 21.9931 11.6048C21.9931 11.4194 21.9947 11.2241 21.9963 11.0212C22.0101 9.3313 22.0282 7.11677 21.1647 5.73531C20.2969 4.34697 18.407 3.29554 16.9263 2.47173C16.7553 2.37659 16.5897 2.28449 16.4318 2.19525C16.2677 2.10248 16.0965 2.00397 15.9194 1.90204Z" fill="url(#paint0_linear_2150_2655)"/>
<path d="M10.592 5.74845C10.8546 5.64236 11.1458 5.64261 11.409 5.74919C12.0491 6.00844 13.0421 6.43248 13.7166 6.81971C14.412 7.21892 15.3048 7.88666 15.8629 8.3209C16.0882 8.49621 16.235 8.75021 16.2743 9.03296C16.3705 9.72532 16.5009 10.8136 16.5009 11.6026C16.5009 12.392 16.3704 13.4808 16.2742 14.1731C16.2349 14.4555 16.0885 14.7092 15.8636 14.8844C15.3131 15.3134 14.4368 15.9697 13.7509 16.3658C13.0649 16.7618 12.0583 17.1925 11.4116 17.4548C11.1474 17.5619 10.8545 17.5619 10.5903 17.4547C9.94258 17.1919 8.93447 16.7604 8.25085 16.3658C7.56737 15.9712 6.68987 15.314 6.13842 14.8845C5.91333 14.7092 5.76676 14.4553 5.72747 14.1727C5.63122 13.4804 5.50085 12.3918 5.50085 11.6026C5.50085 10.8123 5.63159 9.72174 5.72788 9.02961C5.76703 8.74821 5.91245 8.49566 6.13577 8.3212C6.67973 7.89625 7.54829 7.24511 8.25085 6.83949C8.95358 6.43377 9.95206 6.00704 10.592 5.74845Z" stroke="url(#paint1_linear_2150_2655)"/>
<defs>
<linearGradient id="paint0_linear_2150_2655" x1="11" y1="0" x2="11" y2="23.2077" gradientUnits="userSpaceOnUse">
<stop stop-color="#38AF68"/>
<stop offset="1" stop-color="#BCE260"/>
</linearGradient>
<linearGradient id="paint1_linear_2150_2655" x1="11.0009" y1="5.16907" x2="11.0009" y2="18.0351" gradientUnits="userSpaceOnUse">
<stop stop-color="#38AF68"/>
<stop offset="1" stop-color="#BCE260"/>
</linearGradient>
</defs>
</svg>
