<svg width="22" height="22" viewBox="0 0 24 24" fill="none" xmlns="http://www.w3.org/2000/svg">
<path fill-rule="evenodd" clip-rule="evenodd" d="M12.3696 8.2077C12.0524 8.18577 11.7353 8.25145 11.4529 8.39757C11.1705 8.5437 10.9338 8.76463 10.7685 9.03624C10.6031 9.30784 10.5157 9.61966 10.5156 9.93761C10.5156 10.2569 10.2567 10.5157 9.93739 10.5156C9.6181 10.5156 9.35931 10.2567 9.35938 9.93739C9.35948 9.40747 9.50525 8.88777 9.78075 8.4351C10.0563 7.98243 10.4509 7.6142 10.9215 7.37066C11.3922 7.12713 11.9207 7.01765 12.4494 7.0542C12.978 7.09075 13.4865 7.27192 13.9191 7.57792C14.3518 7.88391 14.692 8.30294 14.9026 8.78922C15.1132 9.2755 15.186 9.81032 15.1132 10.3352C15.0404 10.8601 14.8247 11.3549 14.4896 11.7655C14.1546 12.176 13.7132 12.4866 13.2135 12.6632C13.1008 12.7031 13.0032 12.777 12.9341 12.8747C12.8651 12.9723 12.8281 13.089 12.8281 13.2086V13.9844C12.8281 14.3037 12.5693 14.5625 12.25 14.5625C11.9307 14.5625 11.6719 14.3037 11.6719 13.9844V13.2092C11.6717 12.8505 11.7828 12.5003 11.9899 12.2073C12.197 11.9143 12.4898 11.6927 12.8281 11.5731C13.1279 11.4671 13.3928 11.2808 13.5938 11.0344C13.7948 10.7881 13.9242 10.4912 13.9679 10.1763C14.0116 9.86137 13.9679 9.54048 13.8415 9.24871C13.7152 8.95694 13.5111 8.70552 13.2515 8.52193C12.9919 8.33833 12.6868 8.22963 12.3696 8.2077Z" fill="url(#paint0_linear_2131_1746)"/>
<path fill-rule="evenodd" clip-rule="evenodd" d="M11.7682 15.8649C11.9108 15.7696 12.0785 15.7188 12.25 15.7188C12.48 15.7188 12.7006 15.8101 12.8632 15.9727C13.0258 16.1354 13.1172 16.3559 13.1172 16.5859C13.1172 16.7575 13.0663 16.9251 12.971 17.0677C12.8757 17.2103 12.7403 17.3215 12.5819 17.3871C12.4234 17.4527 12.249 17.4699 12.0808 17.4365C11.9126 17.403 11.7581 17.3204 11.6368 17.1991C11.5155 17.0778 11.4329 16.9233 11.3995 16.7551C11.366 16.5869 11.3832 16.4125 11.4488 16.2541C11.5145 16.0956 11.6256 15.9602 11.7682 15.8649Z" fill="url(#paint1_linear_2131_1746)"/>
<path fill-rule="evenodd" clip-rule="evenodd" d="M5.70926 5.70926C7.44397 3.97455 9.79675 3 12.25 3C14.7033 3 17.056 3.97455 18.7907 5.70926C20.5254 7.44397 21.5 9.79675 21.5 12.25C21.5 14.7033 20.5254 17.056 18.7907 18.7907C17.056 20.5254 14.7033 21.5 12.25 21.5C9.79675 21.5 7.44397 20.5254 5.70926 18.7907C3.97455 17.056 3 14.7033 3 12.25C3 9.79675 3.97455 7.44397 5.70926 5.70926ZM12.25 4.15625C10.1034 4.15625 8.04473 5.00898 6.52685 6.52685C5.00898 8.04473 4.15625 10.1034 4.15625 12.25C4.15625 14.3966 5.00898 16.4553 6.52685 17.9731C8.04473 19.491 10.1034 20.3438 12.25 20.3438C14.3966 20.3438 16.4553 19.491 17.9731 17.9731C19.491 16.4553 20.3438 14.3966 20.3438 12.25C20.3438 10.1034 19.491 8.04473 17.9731 6.52685C16.4553 5.00898 14.3966 4.15625 12.25 4.15625Z" fill="url(#paint2_linear_2131_1746)"/>
<defs>
<linearGradient id="paint0_linear_2131_1746" x1="3" y1="3" x2="26.7615" y2="27.2706" gradientUnits="userSpaceOnUse">
<stop offset="0.104539" stop-color="#BCE260"/>
<stop offset="1" stop-color="#38AF68"/>
</linearGradient>
<linearGradient id="paint1_linear_2131_1746" x1="3" y1="3" x2="26.7615" y2="27.2706" gradientUnits="userSpaceOnUse">
<stop offset="0.104539" stop-color="#BCE260"/>
<stop offset="1" stop-color="#38AF68"/>
</linearGradient>
<linearGradient id="paint2_linear_2131_1746" x1="3" y1="3" x2="26.7615" y2="27.2706" gradientUnits="userSpaceOnUse">
<stop offset="0.104539" stop-color="#BCE260"/>
<stop offset="1" stop-color="#38AF68"/>
</linearGradient>
</defs>
</svg>
