<svg width="19" height="27" viewBox="0 0 19 27" fill="none" xmlns="http://www.w3.org/2000/svg">
<path d="M9.49309 0.208344C9.89405 0.208344 10.2191 0.533392 10.2191 0.934359V2.60978C10.2191 3.01075 9.89405 3.33579 9.49309 3.33579C9.09212 3.33579 8.76707 3.01075 8.76707 2.60978V0.934359C8.76707 0.533392 9.09212 0.208344 9.49309 0.208344Z" fill="url(#paint0_linear_2373_200)"/>
<path d="M18.2998 3.85677C18.5833 4.1403 18.5833 4.59999 18.2998 4.88351L17.1147 6.06859C16.8312 6.35212 16.3715 6.35212 16.088 6.06859C15.8045 5.78507 15.8045 5.32538 16.088 5.04185L17.2731 3.85677C17.5566 3.57325 18.0163 3.57325 18.2998 3.85677Z" fill="url(#paint1_linear_2373_200)"/>
<path d="M1.71314 3.85677C1.42961 3.57325 0.969927 3.57325 0.6864 3.85677C0.402873 4.1403 0.402873 4.59999 0.6864 4.88351L1.87148 6.06859C2.15501 6.35212 2.6147 6.35212 2.89822 6.06859C3.18175 5.78507 3.18175 5.32538 2.89822 5.04185L1.71314 3.85677Z" fill="url(#paint2_linear_2373_200)"/>
<path fill-rule="evenodd" clip-rule="evenodd" d="M4.24091 17.9145C4.60178 18.2753 4.99597 18.5952 5.41623 18.8712V21.0372C5.41623 22.1184 5.84575 23.1554 6.61031 23.9199C7.21343 24.5231 7.97221 24.8945 8.76707 25.0343V26.0657C8.76707 26.4666 9.09212 26.7917 9.49309 26.7917C9.89405 26.7917 10.2191 26.4666 10.2191 26.0657V25.0343C11.014 24.8945 11.7727 24.5231 12.3759 23.9199C13.1404 23.1554 13.5699 22.1184 13.5699 21.0372V18.8712C13.9902 18.5952 14.3844 18.2753 14.7453 17.9145C16.1382 16.5215 16.9208 14.6322 16.9208 12.6623C16.9208 10.6924 16.1382 8.80309 14.7453 7.41013C13.3523 6.01716 11.463 5.2346 9.49309 5.2346C7.52314 5.2346 5.63388 6.01716 4.24091 7.41013C2.84795 8.80309 2.06539 10.6924 2.06539 12.6623C2.06539 14.6322 2.84795 16.5215 4.24091 17.9145ZM6.86826 21.0372V19.6108C7.69925 19.9247 8.58765 20.09 9.49309 20.09C10.3985 20.09 11.2869 19.9247 12.1179 19.6108V21.0372C12.1179 21.7333 11.8414 22.4009 11.3491 22.8932C10.3382 23.9041 8.64797 23.9041 7.63706 22.8932C7.14481 22.4009 6.86826 21.7333 6.86826 21.0372ZM9.49309 6.68663C7.90824 6.68663 6.38831 7.31621 5.26765 8.43687C4.147 9.55752 3.51742 11.0775 3.51742 12.6623C3.51742 14.2471 4.147 15.7671 5.26765 16.8877C6.38831 18.0084 7.90824 18.638 9.49309 18.638C11.0779 18.638 12.5979 18.0084 13.7185 16.8877C14.8392 15.7671 15.4688 14.2471 15.4688 12.6623C15.4688 11.0775 14.8392 9.55752 13.7185 8.43687C12.5979 7.31621 11.0779 6.68663 9.49309 6.68663Z" fill="url(#paint3_linear_2373_200)"/>
<defs>
<linearGradient id="paint0_linear_2373_200" x1="9.4931" y1="0.208344" x2="9.4931" y2="26.7917" gradientUnits="userSpaceOnUse">
<stop stop-color="#38AF68"/>
<stop offset="1" stop-color="#BCE260"/>
</linearGradient>
<linearGradient id="paint1_linear_2373_200" x1="9.4931" y1="0.208344" x2="9.4931" y2="26.7917" gradientUnits="userSpaceOnUse">
<stop stop-color="#38AF68"/>
<stop offset="1" stop-color="#BCE260"/>
</linearGradient>
<linearGradient id="paint2_linear_2373_200" x1="9.4931" y1="0.208344" x2="9.4931" y2="26.7917" gradientUnits="userSpaceOnUse">
<stop stop-color="#38AF68"/>
<stop offset="1" stop-color="#BCE260"/>
</linearGradient>
<linearGradient id="paint3_linear_2373_200" x1="9.4931" y1="0.208344" x2="9.4931" y2="26.7917" gradientUnits="userSpaceOnUse">
<stop stop-color="#38AF68"/>
<stop offset="1" stop-color="#BCE260"/>
</linearGradient>
</defs>
</svg>
