<svg width="24" height="24" viewBox="0 0 24 25" fill="none" xmlns="http://www.w3.org/2000/svg">
<path fill-rule="evenodd" clip-rule="evenodd" d="M12.0769 4.38462C10.4201 4.38462 9.07692 5.72776 9.07692 7.38462C9.07692 9.04147 10.4201 10.3846 12.0769 10.3846C13.7338 10.3846 15.0769 9.04147 15.0769 7.38462C15.0769 5.72776 13.7338 4.38462 12.0769 4.38462ZM7.69231 7.38462C7.69231 4.96306 9.65537 3 12.0769 3C14.4985 3 16.4615 4.96306 16.4615 7.38462C16.4615 9.80617 14.4985 11.7692 12.0769 11.7692C9.65537 11.7692 7.69231 9.80617 7.69231 7.38462ZM4 18.4615C4 16.04 5.96306 14.0769 8.38462 14.0769H15.7692C18.1908 14.0769 20.1538 16.04 20.1538 18.4615V20.3077C20.1538 20.69 19.8439 21 19.4615 21C19.0792 21 18.7692 20.69 18.7692 20.3077V18.4615C18.7692 16.8047 17.4261 15.4615 15.7692 15.4615H8.38462C6.72776 15.4615 5.38462 16.8047 5.38462 18.4615V20.3077C5.38462 20.69 5.07466 21 4.69231 21C4.30996 21 4 20.69 4 20.3077V18.4615Z" fill="url(#paint0_linear_2130_1696)"/>
<defs>
<linearGradient id="paint0_linear_2130_1696" x1="4" y1="3" x2="27.0372" y2="24.1174" gradientUnits="userSpaceOnUse">
<stop offset="0.104539" stop-color="#BCE260"/>
<stop offset="1" stop-color="#38AF68"/>
</linearGradient>
</defs>
</svg>
